<mxfile host="app.diagrams.net" modified="2023-08-02T16:29:35.335Z" agent="Mozilla/5.0 (Windows NT 10.0; Win64; x64) AppleWebKit/537.36 (KHTML, like Gecko) Chrome/112.0.0.0 Safari/537.36" etag="0d1FENofVd57uyWL48WY" version="21.6.6" type="github">
  <diagram name="第 1 页" id="aBr6WzVFOg7q3qQ0ktUE">
    <mxGraphModel dx="778" dy="472" grid="1" gridSize="10" guides="1" tooltips="1" connect="1" arrows="1" fold="1" page="1" pageScale="1" pageWidth="3300" pageHeight="2339" math="0" shadow="0">
      <root>
        <mxCell id="0" />
        <mxCell id="1" parent="0" />
        <mxCell id="MqWlva8balTGidL8iJgE-1" value="&lt;font style=&quot;font-size: 16px;&quot;&gt;Encoder&lt;/font&gt;" style="shape=trapezoid;perimeter=trapezoidPerimeter;whiteSpace=wrap;html=1;fixedSize=1;rotation=90;fillColor=#0050ef;fontColor=#ffffff;strokeColor=#001DBC;" vertex="1" parent="1">
          <mxGeometry x="165" y="215" width="140" height="70" as="geometry" />
        </mxCell>
        <mxCell id="MqWlva8balTGidL8iJgE-2" value="" style="shape=cube;whiteSpace=wrap;html=1;boundedLbl=1;backgroundOutline=1;darkOpacity=0.05;darkOpacity2=0.1;rotation=90;" vertex="1" parent="1">
          <mxGeometry x="370" y="120" width="60" height="60" as="geometry" />
        </mxCell>
        <mxCell id="MqWlva8balTGidL8iJgE-4" value="" style="shape=cube;whiteSpace=wrap;html=1;boundedLbl=1;backgroundOutline=1;darkOpacity=0.05;darkOpacity2=0.1;rotation=90;" vertex="1" parent="1">
          <mxGeometry x="350" y="340" width="100" height="100" as="geometry" />
        </mxCell>
        <mxCell id="MqWlva8balTGidL8iJgE-5" value="" style="endArrow=none;html=1;rounded=0;" edge="1" parent="1" target="MqWlva8balTGidL8iJgE-2">
          <mxGeometry width="50" height="50" relative="1" as="geometry">
            <mxPoint x="370" y="160" as="sourcePoint" />
            <mxPoint x="420" y="110" as="targetPoint" />
          </mxGeometry>
        </mxCell>
        <mxCell id="MqWlva8balTGidL8iJgE-8" value="" style="endArrow=none;html=1;rounded=0;entryX=0.6;entryY=0.2;entryDx=0;entryDy=0;entryPerimeter=0;" edge="1" parent="1" target="MqWlva8balTGidL8iJgE-4">
          <mxGeometry width="50" height="50" relative="1" as="geometry">
            <mxPoint x="350" y="400" as="sourcePoint" />
            <mxPoint x="400" y="350" as="targetPoint" />
          </mxGeometry>
        </mxCell>
        <mxCell id="MqWlva8balTGidL8iJgE-9" value="" style="endArrow=none;html=1;rounded=0;entryX=0;entryY=0;entryDx=100;entryDy=60;entryPerimeter=0;" edge="1" parent="1" target="MqWlva8balTGidL8iJgE-4">
          <mxGeometry width="50" height="50" relative="1" as="geometry">
            <mxPoint x="390" y="360" as="sourcePoint" />
            <mxPoint x="390" y="430" as="targetPoint" />
          </mxGeometry>
        </mxCell>
        <mxCell id="MqWlva8balTGidL8iJgE-15" value="" style="endArrow=none;html=1;rounded=0;entryX=0.4;entryY=0.2;entryDx=0;entryDy=0;entryPerimeter=0;" edge="1" parent="1" target="MqWlva8balTGidL8iJgE-4">
          <mxGeometry width="50" height="50" relative="1" as="geometry">
            <mxPoint x="350" y="380" as="sourcePoint" />
            <mxPoint x="390" y="380" as="targetPoint" />
          </mxGeometry>
        </mxCell>
        <mxCell id="MqWlva8balTGidL8iJgE-16" value="" style="endArrow=none;html=1;rounded=0;entryX=0.4;entryY=0.2;entryDx=0;entryDy=0;entryPerimeter=0;" edge="1" parent="1">
          <mxGeometry width="50" height="50" relative="1" as="geometry">
            <mxPoint x="350" y="420" as="sourcePoint" />
            <mxPoint x="430" y="420" as="targetPoint" />
          </mxGeometry>
        </mxCell>
        <mxCell id="MqWlva8balTGidL8iJgE-17" value="" style="endArrow=none;html=1;rounded=0;entryX=0;entryY=0;entryDx=100;entryDy=60;entryPerimeter=0;" edge="1" parent="1">
          <mxGeometry width="50" height="50" relative="1" as="geometry">
            <mxPoint x="370" y="360" as="sourcePoint" />
            <mxPoint x="370" y="440" as="targetPoint" />
          </mxGeometry>
        </mxCell>
        <mxCell id="MqWlva8balTGidL8iJgE-18" value="" style="endArrow=none;html=1;rounded=0;entryX=0;entryY=0;entryDx=100;entryDy=60;entryPerimeter=0;" edge="1" parent="1">
          <mxGeometry width="50" height="50" relative="1" as="geometry">
            <mxPoint x="410" y="360" as="sourcePoint" />
            <mxPoint x="410" y="440" as="targetPoint" />
          </mxGeometry>
        </mxCell>
        <mxCell id="MqWlva8balTGidL8iJgE-19" value="" style="endArrow=none;html=1;rounded=0;entryX=0.667;entryY=0.333;entryDx=0;entryDy=0;entryPerimeter=0;" edge="1" parent="1" target="MqWlva8balTGidL8iJgE-2">
          <mxGeometry width="50" height="50" relative="1" as="geometry">
            <mxPoint x="370" y="160" as="sourcePoint" />
            <mxPoint x="420" y="110" as="targetPoint" />
          </mxGeometry>
        </mxCell>
        <mxCell id="MqWlva8balTGidL8iJgE-20" value="" style="endArrow=none;html=1;rounded=0;entryX=0.333;entryY=0.667;entryDx=0;entryDy=0;entryPerimeter=0;" edge="1" parent="1" target="MqWlva8balTGidL8iJgE-2">
          <mxGeometry width="50" height="50" relative="1" as="geometry">
            <mxPoint x="390" y="180" as="sourcePoint" />
            <mxPoint x="390" y="160" as="targetPoint" />
          </mxGeometry>
        </mxCell>
        <mxCell id="MqWlva8balTGidL8iJgE-22" value="" style="shape=cube;whiteSpace=wrap;html=1;boundedLbl=1;backgroundOutline=1;darkOpacity=0.05;darkOpacity2=0.1;rotation=90;" vertex="1" parent="1">
          <mxGeometry x="360" y="210" width="80" height="80" as="geometry" />
        </mxCell>
        <mxCell id="MqWlva8balTGidL8iJgE-24" value="" style="endArrow=none;html=1;rounded=0;entryX=0.75;entryY=0.25;entryDx=0;entryDy=0;entryPerimeter=0;" edge="1" parent="1" target="MqWlva8balTGidL8iJgE-22">
          <mxGeometry width="50" height="50" relative="1" as="geometry">
            <mxPoint x="360" y="270" as="sourcePoint" />
            <mxPoint x="410" y="220" as="targetPoint" />
          </mxGeometry>
        </mxCell>
        <mxCell id="MqWlva8balTGidL8iJgE-25" value="" style="endArrow=none;html=1;rounded=0;entryX=0.75;entryY=0.25;entryDx=0;entryDy=0;entryPerimeter=0;" edge="1" parent="1">
          <mxGeometry width="50" height="50" relative="1" as="geometry">
            <mxPoint x="360" y="249.86" as="sourcePoint" />
            <mxPoint x="420" y="249.86" as="targetPoint" />
          </mxGeometry>
        </mxCell>
        <mxCell id="MqWlva8balTGidL8iJgE-26" value="" style="endArrow=none;html=1;rounded=0;entryX=0.25;entryY=0.75;entryDx=0;entryDy=0;entryPerimeter=0;" edge="1" parent="1" target="MqWlva8balTGidL8iJgE-22">
          <mxGeometry width="50" height="50" relative="1" as="geometry">
            <mxPoint x="380" y="290" as="sourcePoint" />
            <mxPoint x="380" y="250" as="targetPoint" />
          </mxGeometry>
        </mxCell>
        <mxCell id="MqWlva8balTGidL8iJgE-27" value="" style="endArrow=none;html=1;rounded=0;entryX=0.25;entryY=0.75;entryDx=0;entryDy=0;entryPerimeter=0;" edge="1" parent="1">
          <mxGeometry width="50" height="50" relative="1" as="geometry">
            <mxPoint x="399.86" y="290" as="sourcePoint" />
            <mxPoint x="399.86" y="230" as="targetPoint" />
          </mxGeometry>
        </mxCell>
        <mxCell id="MqWlva8balTGidL8iJgE-28" value="" style="shape=curlyBracket;whiteSpace=wrap;html=1;rounded=1;labelPosition=left;verticalLabelPosition=middle;align=right;verticalAlign=middle;" vertex="1" parent="1">
          <mxGeometry x="305" y="160" width="20" height="210" as="geometry" />
        </mxCell>
        <mxCell id="MqWlva8balTGidL8iJgE-29" value="Multi-level feature" style="text;html=1;strokeColor=none;fillColor=none;align=center;verticalAlign=middle;whiteSpace=wrap;rounded=0;" vertex="1" parent="1">
          <mxGeometry x="345" y="70" width="110" height="40" as="geometry" />
        </mxCell>
      </root>
    </mxGraphModel>
  </diagram>
</mxfile>
